<?xml version="1.0" encoding="UTF-8"?><svg id="a" xmlns="http://www.w3.org/2000/svg" xmlns:xlink="http://www.w3.org/1999/xlink" viewBox="0 0 592.34 563.85"><defs><linearGradient id="b" x1="246.61" y1="202.03" x2="337.74" y2="202.03" gradientUnits="userSpaceOnUse"><stop offset="0" stop-color="#8bc34a"/><stop offset="1" stop-color="#29b6f6"/></linearGradient></defs><g><path d="M108.06,378.37c-11.65-12.19-26.15-18.29-43.52-18.29H14.21v23.9h50.32c10.97,0,19.9,3.64,26.79,10.94,6.87,7.3,10.31,16.8,10.31,28.51s-3.44,21.21-10.31,28.51c-6.89,7.3-15.82,10.94-26.79,10.94h-25.34v-53.44H14.21v77.34h50.32c17.38,0,31.87-6.1,43.52-18.29,11.65-12.18,17.46-27.2,17.46-45.06s-5.82-32.87-17.46-45.06Z" fill="#8bc34a"/><path d="M153.76,385.42c-3.86,0-7.21-1.42-10.05-4.25-2.84-2.83-4.25-6.18-4.25-10.04s1.42-7.24,4.25-10.14c2.83-2.9,6.18-4.34,10.05-4.34s7.39,1.45,10.23,4.34c2.83,2.9,4.25,6.28,4.25,10.14s-1.42,7.21-4.25,10.04c-2.84,2.84-6.24,4.25-10.23,4.25Zm-11.58,101.36v-90.5h23.35v90.5h-23.35Z" fill="#8bc34a"/><path d="M237.2,393.75c9.89,0,18.07,3.32,24.53,9.95,6.45,6.64,9.68,15.81,9.68,27.51v55.57h-23.35v-52.67c0-6.03-1.63-10.65-4.89-13.85-3.26-3.2-7.6-4.8-13.03-4.8-6.03,0-10.86,1.87-14.48,5.61-3.62,3.74-5.43,9.35-5.43,16.83v48.87h-23.35v-90.5h23.35v10.14c5.67-8.44,14.66-12.67,26.97-12.67Z" fill="#8bc34a"/><path d="M368.43,475.47c-9.29,9.23-20.63,13.85-34.03,13.85s-24.71-4.62-33.94-13.85c-9.23-9.23-13.85-20.54-13.85-33.94s4.62-24.7,13.85-33.94c9.23-9.23,20.54-13.85,33.94-13.85s24.73,4.62,34.03,13.85c9.29,9.23,13.94,20.54,13.94,33.94s-4.65,24.71-13.94,33.94Zm-51.49-16.02c4.64,4.71,10.47,7.06,17.47,7.06s12.85-2.35,17.56-7.06c4.71-4.71,7.06-10.68,7.06-17.92s-2.35-13.21-7.06-17.92c-4.71-4.71-10.56-7.06-17.56-7.06s-12.82,2.35-17.47,7.06c-4.65,4.7-6.97,10.68-6.97,17.92s2.32,13.21,6.97,17.92Z" fill="#8bc34a"/><path d="M454.76,396.28h25.7l-34.39,90.5h-26.61l-34.39-90.5h25.7l21.94,63.34,22.04-63.34Z" fill="#8bc34a"/><path d="M565.18,475.47c-9.29,9.23-20.63,13.85-34.03,13.85s-24.71-4.62-33.94-13.85c-9.23-9.23-13.85-20.54-13.85-33.94s4.62-24.7,13.85-33.94c9.23-9.23,20.54-13.85,33.94-13.85s24.73,4.62,34.03,13.85c9.29,9.23,13.94,20.54,13.94,33.94s-4.65,24.71-13.94,33.94Zm-51.49-16.02c4.64,4.71,10.47,7.06,17.47,7.06s12.85-2.35,17.56-7.06c4.71-4.71,7.06-10.68,7.06-17.92s-2.35-13.21-7.06-17.92c-4.71-4.71-10.56-7.06-17.56-7.06s-12.82,2.35-17.47,7.06c-4.65,4.7-6.97,10.68-6.97,17.92s2.32,13.21,6.97,17.92Z" fill="#8bc34a"/></g><g><path d="M417.11,188.87v129.41h-43.5V188.87h-.07c-.41-20.65-6.67-37.52-18.78-50.61-12.56-13.49-28.84-20.25-48.88-20.25H176.21v-44.2h129.66c31.71,0,58.16,11.26,79.41,33.83,20.77,22.08,31.38,49.14,31.82,81.23Z" fill="#8bc34a"/><polygon points="328.07 272.45 328.31 318.28 176.21 318.28 176.21 163.74 221.78 163.74 221.78 272.45 328.07 272.45" fill="#29b6f6"/><path d="M292.17,247.86h-45.56s0-45.82,0-45.82h45.56s0,45.82,0,45.82Zm45.56-91.65h-45.56s0,45.82,0,45.82h45.56s0-45.82,0-45.82Z" fill="url(#b)"/><line x1="221.52" y1="272.69" x2="258.43" y2="235.78" fill="none"/></g></svg>